<svg width="1600" height="900" xmlns="http://www.w3.org/2000/svg">
  <defs>
    <style>
      .title { font-family: Arial, sans-serif; font-size: 28px; font-weight: bold; fill: #1e40af; text-anchor: middle; }
      .subtitle { font-family: Arial, sans-serif; font-size: 16px; fill: #64748b; text-anchor: middle; }
      .phase-title { font-family: Arial, sans-serif; font-size: 14px; font-weight: bold; fill: #1f2937; }
      .task-text { font-family: Arial, sans-serif; font-size: 11px; fill: #374151; }
      .date-text { font-family: Arial, sans-serif; font-size: 10px; fill: #6b7280; text-anchor: middle; }
      .week-text { font-family: Arial, sans-serif; font-size: 9px; fill: #9ca3af; text-anchor: middle; }
      .duration-text { font-family: Arial, sans-serif; font-size: 9px; fill: #ffffff; text-anchor: middle; font-weight: bold; }
      
      /* Styles des phases */
      .phase-mvp { fill: #ef4444; stroke: #dc2626; stroke-width: 2; }
      .phase-portfolio { fill: #f97316; stroke: #ea580c; stroke-width: 2; }
      .phase-trading { fill: #eab308; stroke: #ca8a04; stroke-width: 2; }
      .phase-wallet { fill: #22c55e; stroke: #16a34a; stroke-width: 2; }
      .phase-admin { fill: #3b82f6; stroke: #2563eb; stroke-width: 2; }
      .phase-advanced { fill: #8b5cf6; stroke: #7c3aed; stroke-width: 2; }
      .phase-notifications { fill: #ec4899; stroke: #db2777; stroke-width: 2; }
      .phase-mobile { fill: #06b6d4; stroke: #0891b2; stroke-width: 2; }
      
      /* Styles des tâches */
      .task-planned { fill: #6b7280; stroke: #4b5563; stroke-width: 1; }
      .task-priority { fill: #dc2626; stroke: #b91c1c; stroke-width: 2; }
      .task-normal { fill: #3b82f6; stroke: #2563eb; stroke-width: 1; }
      .task-optional { fill: #10b981; stroke: #059669; stroke-width: 1; }
      
      /* Grille */
      .grid-line { stroke: #e5e7eb; stroke-width: 0.5; }
      .grid-major { stroke: #d1d5db; stroke-width: 1; }
      
      /* Dépendances */
      .dependency { stroke: #6b7280; stroke-width: 1.5; fill: none; stroke-dasharray: 3,2; }
      .dependency-arrow { fill: #6b7280; }
      
      /* Légende */
      .legend-box { fill: #f8fafc; stroke: #e2e8f0; stroke-width: 1; }
      .legend-text { font-family: Arial, sans-serif; font-size: 11px; fill: #374151; }
      .legend-title { font-family: Arial, sans-serif; font-size: 13px; font-weight: bold; fill: #1f2937; }
    </style>
  </defs>

  <!-- Titre principal -->
  <text x="800" y="35" class="title">Diagramme de Gantt - Laevitas Trading Platform</text>
  <text x="800" y="55" class="subtitle">Planification Projet (3 Juin - 3 Octobre 2025)</text>

  <!-- Grille temporelle -->
  <!-- Mois -->
  <rect x="200" y="80" width="1300" height="30" fill="#f1f5f9" stroke="#d1d5db"/>
  
  <!-- Juin 2025 -->
  <text x="275" y="100" class="date-text">Juin 2025</text>
  <line x1="350" y1="80" x2="350" y2="850" class="grid-major"/>
  
  <!-- Juillet 2025 -->
  <text x="475" y="100" class="date-text">Juillet 2025</text>
  <line x1="550" y1="80" x2="550" y2="850" class="grid-major"/>
  
  <!-- Août 2025 -->
  <text x="675" y="100" class="date-text">Août 2025</text>
  <line x1="750" y1="80" x2="750" y2="850" class="grid-major"/>
  
  <!-- Septembre 2025 -->
  <text x="875" y="100" class="date-text">Septembre 2025</text>
  <line x1="950" y1="80" x2="950" y2="850" class="grid-major"/>
  
  <!-- Octobre 2025 -->
  <text x="1075" y="100" class="date-text">Octobre 2025</text>
  <line x1="1150" y1="80" x2="1150" y2="850" class="grid-major"/>

  <!-- Semaines -->
  <rect x="200" y="110" width="1300" height="20" fill="#f8fafc" stroke="#e2e8f0"/>
  
  <!-- Semaines S23-S40 (du 3 juin au 3 octobre 2025) -->
  <text x="225" y="123" class="week-text">S23</text>
  <text x="300" y="123" class="week-text">S24</text>
  <text x="375" y="123" class="week-text">S25</text>
  <text x="450" y="123" class="week-text">S26</text>
  <text x="525" y="123" class="week-text">S27</text>
  <text x="600" y="123" class="week-text">S28</text>
  <text x="675" y="123" class="week-text">S29</text>
  <text x="750" y="123" class="week-text">S30</text>
  <text x="825" y="123" class="week-text">S31</text>
  <text x="900" y="123" class="week-text">S32</text>
  <text x="975" y="123" class="week-text">S33</text>
  <text x="1050" y="123" class="week-text">S34</text>
  <text x="1125" y="123" class="week-text">S35</text>
  <text x="1200" y="123" class="week-text">S36</text>
  <text x="1275" y="123" class="week-text">S37</text>
  <text x="1350" y="123" class="week-text">S38</text>
  <text x="1425" y="123" class="week-text">S39</text>
  <text x="1500" y="123" class="week-text">S40</text>

  <!-- Grilles verticales pour les semaines -->
  <line x1="262" y1="130" x2="262" y2="850" class="grid-line"/>
  <line x1="337" y1="130" x2="337" y2="850" class="grid-line"/>
  <line x1="412" y1="130" x2="412" y2="850" class="grid-line"/>
  <line x1="487" y1="130" x2="487" y2="850" class="grid-line"/>
  <line x1="562" y1="130" x2="562" y2="850" class="grid-line"/>
  <line x1="637" y1="130" x2="637" y2="850" class="grid-line"/>
  <line x1="712" y1="130" x2="712" y2="850" class="grid-line"/>
  <line x1="787" y1="130" x2="787" y2="850" class="grid-line"/>
  <line x1="862" y1="130" x2="862" y2="850" class="grid-line"/>
  <line x1="937" y1="130" x2="937" y2="850" class="grid-line"/>
  <line x1="1012" y1="130" x2="1012" y2="850" class="grid-line"/>
  <line x1="1087" y1="130" x2="1087" y2="850" class="grid-line"/>
  <line x1="1162" y1="130" x2="1162" y2="850" class="grid-line"/>
  <line x1="1237" y1="130" x2="1237" y2="850" class="grid-line"/>
  <line x1="1312" y1="130" x2="1312" y2="850" class="grid-line"/>
  <line x1="1387" y1="130" x2="1387" y2="850" class="grid-line"/>
  <line x1="1462" y1="130" x2="1462" y2="850" class="grid-line"/>

  <!-- Ligne de base -->
  <line x1="200" y1="130" x2="1500" y2="130" stroke="#374151" stroke-width="2"/>

  <!-- PHASE 1: Advanced Trading Features (v2.0.0) -->
  <text x="20" y="155" class="phase-title">PHASE 1: Advanced Trading</text>
  <text x="20" y="170" class="task-text">v2.0.0</text>
  
  <!-- Sprint 1.1: Trading Bots Core (S23-S25) -->
  <rect x="200" y="150" width="175" height="20" class="task-priority" rx="3"/>
  <text x="287" y="163" class="duration-text">Trading Bots Core</text>
  <text x="20" y="185" class="task-text">• Algorithmes de trading</text>
  <text x="20" y="197" class="task-text">• Gestion des ordres</text>
  <text x="20" y="209" class="task-text">• Stop-loss/Take-profit</text>

  <!-- Sprint 1.2: Bot Configuration UI (S26-S27) -->
  <rect x="375" y="150" width="150" height="20" class="task-normal" rx="3"/>
  <text x="450" y="163" class="duration-text">Bot Config UI</text>

  <!-- PHASE 2: Technical Analysis & Backtesting -->
  <text x="20" y="235" class="phase-title">PHASE 2: Analysis</text>
  <text x="20" y="250" class="task-text">v2.1.0</text>
  
  <!-- Sprint 2.1: Technical Indicators (S28-S29) -->
  <rect x="525" y="230" width="150" height="20" class="task-normal" rx="3"/>
  <text x="600" y="243" class="duration-text">Tech Indicators</text>
  <text x="20" y="265" class="task-text">• RSI, MACD, Bollinger</text>
  <text x="20" y="277" class="task-text">• Moyennes mobiles</text>
  <text x="20" y="289" class="task-text">• Patterns de prix</text>

  <!-- Sprint 2.2: Backtesting Engine (S30-S31) -->
  <rect x="675" y="230" width="150" height="20" class="task-normal" rx="3"/>
  <text x="750" y="243" class="duration-text">Backtesting</text>

  <!-- PHASE 3: Notifications & Alerts System -->
  <text x="20" y="315" class="phase-title">PHASE 3: Notifications</text>
  <text x="20" y="330" class="task-text">v2.2.0</text>
  
  <!-- Sprint 3.1: Alert Engine (S32-S33) -->
  <rect x="825" y="310" width="150" height="20" class="task-normal" rx="3"/>
  <text x="900" y="323" class="duration-text">Alert Engine</text>
  <text x="20" y="345" class="task-text">• Alertes de prix</text>
  <text x="20" y="357" class="task-text">• Notifications push</text>
  <text x="20" y="369" class="task-text">• Email/SMS</text>

  <!-- Sprint 3.2: Notification UI (S34) -->
  <rect x="975" y="310" width="75" height="20" class="task-normal" rx="3"/>
  <text x="1012" y="323" class="duration-text">Notif UI</text>

  <!-- PHASE 4: Performance & Optimization -->
  <text x="20" y="395" class="phase-title">PHASE 4: Performance</text>
  <text x="20" y="410" class="task-text">v2.3.0</text>
  
  <!-- Sprint 4.1: Database Optimization (S35) -->
  <rect x="1050" y="390" width="75" height="20" class="task-normal" rx="3"/>
  <text x="1087" y="403" class="duration-text">DB Optim</text>
  <text x="20" y="425" class="task-text">• Indexation MongoDB</text>
  <text x="20" y="437" class="task-text">• Cache Redis</text>
  <text x="20" y="449" class="task-text">• Requêtes optimisées</text>

  <!-- Sprint 4.2: Frontend Performance (S36) -->
  <rect x="1125" y="390" width="75" height="20" class="task-normal" rx="3"/>
  <text x="1162" y="403" class="duration-text">FE Perf</text>

  <!-- PHASE 5: Security & Compliance -->
  <text x="20" y="475" class="phase-title">PHASE 5: Security</text>
  <text x="20" y="490" class="task-text">v2.4.0</text>
  
  <!-- Sprint 5.1: Security Audit (S37) -->
  <rect x="1200" y="470" width="75" height="20" class="task-priority" rx="3"/>
  <text x="1237" y="483" class="duration-text">Security</text>
  <text x="20" y="505" class="task-text">• Audit sécurité</text>
  <text x="20" y="517" class="task-text">• Chiffrement avancé</text>
  <text x="20" y="529" class="task-text">• 2FA obligatoire</text>

  <!-- Sprint 5.2: Compliance (S38) -->
  <rect x="1275" y="470" width="75" height="20" class="task-normal" rx="3"/>
  <text x="1312" y="483" class="duration-text">Compliance</text>

  <!-- PHASE 6: Mobile App Foundation -->
  <text x="20" y="555" class="phase-title">PHASE 6: Mobile Prep</text>
  <text x="20" y="570" class="task-text">v2.5.0</text>
  
  <!-- Sprint 6.1: API Mobile (S39) -->
  <rect x="1350" y="550" width="75" height="20" class="task-optional" rx="3"/>
  <text x="1387" y="563" class="duration-text">API Mobile</text>
  <text x="20" y="585" class="task-text">• API REST mobile</text>
  <text x="20" y="597" class="task-text">• Authentification mobile</text>
  <text x="20" y="609" class="task-text">• Synchronisation</text>

  <!-- Sprint 6.2: Documentation (S40) -->
  <rect x="1425" y="550" width="75" height="20" class="task-optional" rx="3"/>
  <text x="1462" y="563" class="duration-text">Docs</text>

  <!-- PHASE 7: Testing & Quality Assurance -->
  <text x="20" y="635" class="phase-title">PHASE 7: QA</text>
  <text x="20" y="650" class="task-text">Tests</text>
  
  <!-- Tests continus (S23-S40) -->
  <rect x="200" y="630" width="1300" height="15" class="task-normal" rx="3" opacity="0.6"/>
  <text x="850" y="641" class="duration-text">Tests Continus & QA</text>
  <text x="20" y="665" class="task-text">• Tests unitaires</text>
  <text x="20" y="677" class="task-text">• Tests d'intégration</text>
  <text x="20" y="689" class="task-text">• Tests de performance</text>

  <!-- Dépendances critiques -->
  <!-- Trading Bots -> Bot UI -->
  <path d="M 375 160 Q 400 180 375 160" class="dependency"/>
  <polygon points="371,158 379,162 371,166" class="dependency-arrow"/>
  
  <!-- Bot UI -> Technical Analysis -->
  <path d="M 525 160 Q 550 180 525 240" class="dependency"/>
  <polygon points="521,238 529,242 521,246" class="dependency-arrow"/>
  
  <!-- Technical Analysis -> Backtesting -->
  <path d="M 675 240 Q 700 260 675 240" class="dependency"/>
  <polygon points="671,238 679,242 671,246" class="dependency-arrow"/>
  
  <!-- Backtesting -> Notifications -->
  <path d="M 825 240 Q 850 260 825 320" class="dependency"/>
  <polygon points="821,318 829,322 821,326" class="dependency-arrow"/>

  <!-- Milestones -->
  <circle cx="525" cy="140" r="4" fill="#dc2626"/>
  <text x="525" y="135" class="task-text" text-anchor="middle">v2.0</text>
  
  <circle cx="825" cy="220" r="4" fill="#f97316"/>
  <text x="825" y="215" class="task-text" text-anchor="middle">v2.1</text>
  
  <circle cx="1050" cy="300" r="4" fill="#eab308"/>
  <text x="1050" y="295" class="task-text" text-anchor="middle">v2.2</text>
  
  <circle cx="1200" cy="380" r="4" fill="#22c55e"/>
  <text x="1200" y="375" class="task-text" text-anchor="middle">v2.3</text>
  
  <circle cx="1350" cy="460" r="4" fill="#3b82f6"/>
  <text x="1350" y="455" class="task-text" text-anchor="middle">v2.4</text>
  
  <circle cx="1500" cy="540" r="4" fill="#8b5cf6"/>
  <text x="1500" y="535" class="task-text" text-anchor="middle">v2.5</text>

  <!-- Légende -->
  <rect x="50" y="720" width="600" height="80" class="legend-box" rx="5"/>
  <text x="350" y="735" class="legend-title" text-anchor="middle">Légende</text>
  
  <rect x="70" y="745" width="20" height="12" class="task-priority"/>
  <text x="100" y="755" class="legend-text">Priorité haute</text>
  
  <rect x="200" y="745" width="20" height="12" class="task-normal"/>
  <text x="230" y="755" class="legend-text">Normal</text>
  
  <rect x="300" y="745" width="20" height="12" class="task-optional"/>
  <text x="330" y="755" class="legend-text">Optionnel</text>
  
  <circle cx="430" cy="751" r="3" fill="#dc2626"/>
  <text x="445" y="755" class="legend-text">Milestone</text>
  
  <line x1="520" y1="751" x2="550" y2="751" class="dependency"/>
  <polygon points="546,749 554,751 546,753" class="dependency-arrow"/>
  <text x="560" y="755" class="legend-text">Dépendance</text>
  
  <text x="70" y="775" class="legend-text">• Sprints de 1-2 semaines</text>
  <text x="70" y="790" class="legend-text">• Livraisons continues</text>
  <text x="300" y="775" class="legend-text">• Tests parallèles</text>
  <text x="300" y="790" class="legend-text">• Reviews hebdomadaires</text>

  <!-- Informations projet -->
  <rect x="700" y="720" width="450" height="80" class="legend-box" rx="5"/>
  <text x="925" y="735" class="legend-title" text-anchor="middle">Informations Projet 2025</text>
  
  <text x="720" y="750" class="legend-text">• Période: 3 Juin - 3 Octobre 2025 (18 semaines)</text>
  <text x="720" y="765" class="legend-text">• Focus: Features avancées et optimisation</text>
  <text x="720" y="780" class="legend-text">• Équipe: 4-6 développeurs expérimentés</text>
  <text x="720" y="795" class="legend-text">• Méthodologie: Agile avec sprints courts</text>

  <!-- Ligne de temps actuelle -->
  <line x1="200" y1="80" x2="200" y2="850" stroke="#22c55e" stroke-width="3" stroke-dasharray="5,5"/>
  <text x="205" y="75" class="task-text" fill="#22c55e" font-weight="bold">Début: 3 Juin</text>

  <!-- Ligne de fin -->
  <line x1="1500" y1="80" x2="1500" y2="850" stroke="#dc2626" stroke-width="3" stroke-dasharray="5,5"/>
  <text x="1505" y="75" class="task-text" fill="#dc2626" font-weight="bold">Fin: 3 Oct</text>

</svg>